<?xml version="1.0" standalone="no"?>
<!DOCTYPE svg PUBLIC "-//W3C//DTD SVG 20010904//EN"
 "http://www.w3.org/TR/2001/REC-SVG-20010904/DTD/svg10.dtd">
<svg version="1.0" xmlns="http://www.w3.org/2000/svg"
 width="3840.000000pt" height="943.000000pt" viewBox="0 0 3840.000000 943.000000"
 preserveAspectRatio="xMidYMid meet">

<g transform="translate(0.000000,943.000000) scale(0.100000,-0.100000)"
fill="#000000" stroke="none">
<path d="M17737 8900 c-26 -16 -60 -50 -76 -76 -38 -59 -83 -184 -85 -232 -1
-31 3 -38 21 -40 44 -6 60 14 92 116 44 142 112 211 160 163 38 -38 29 -108
-69 -502 -49 -199 -90 -373 -90 -385 0 -25 43 -64 70 -64 38 0 81 24 100 55
12 19 56 172 100 345 88 349 97 368 205 468 71 65 134 92 213 92 64 0 87 -11
107 -50 34 -66 10 -199 -87 -485 -71 -209 -76 -257 -35 -327 36 -61 87 -88
171 -88 82 0 130 22 198 92 53 54 97 132 121 216 18 60 14 66 -44 60 -29 -3
-34 -8 -48 -53 -43 -131 -113 -219 -184 -230 -47 -8 -67 9 -67 58 0 15 36 135
79 265 44 130 84 270 91 311 30 201 -73 321 -275 321 -113 0 -184 -29 -296
-122 -26 -21 -49 -38 -52 -38 -2 0 -7 12 -10 28 -3 15 -21 42 -39 61 -75 77
-188 94 -271 41z"/>
<path d="M33804 8738 c-364 -369 -609 -720 -821 -1173 -328 -705 -487 -1474
-509 -2475 -11 -475 23 -909 116 -1476 83 -504 285 -1091 523 -1526 215 -390
432 -674 754 -981 101 -96 102 -97 152 -97 40 0 52 4 61 20 9 17 -4 36 -98
142 -220 250 -358 438 -492 668 -230 397 -384 791 -506 1297 -310 1287 -241
3057 162 4173 179 495 344 807 608 1150 82 108 249 305 267 316 6 3 24 24 40
46 38 53 27 68 -50 68 l-56 0 -151 -152z"/>
<path d="M36290 8869 c0 -12 31 -56 73 -103 298 -330 433 -523 623 -891 198
-385 335 -782 430 -1249 127 -628 179 -1306 154 -1998 -46 -1302 -317 -2267
-858 -3053 -113 -164 -189 -259 -354 -446 -38 -42 -68 -81 -68 -87 0 -18 35
-32 78 -32 38 0 48 8 168 122 398 383 745 911 959 1458 227 582 354 1199 396
1932 17 289 6 846 -20 1098 -70 659 -133 979 -275 1405 -102 305 -161 448
-275 670 -220 428 -413 696 -735 1023 l-170 172 -63 0 c-57 0 -63 -2 -63 -21z"/>
<path d="M34543 7775 c-99 -50 -167 -145 -225 -315 -42 -123 -51 -169 -37
-186 14 -17 80 -18 102 -1 9 6 32 66 52 132 35 118 79 207 121 246 32 30 84
35 114 11 23 -18 25 -29 28 -109 3 -84 -2 -109 -108 -533 -140 -559 -152 -615
-138 -645 17 -38 67 -59 127 -53 60 6 94 32 122 93 9 22 65 231 124 465 101
406 108 428 151 497 120 193 268 291 446 296 92 2 123 -15 150 -84 39 -101 13
-256 -97 -586 -111 -330 -127 -389 -119 -443 15 -104 77 -188 162 -220 78 -30
194 -25 267 11 67 32 192 159 232 234 47 90 94 236 81 252 -13 16 -104 17
-114 1 -4 -7 -20 -47 -35 -90 -31 -92 -94 -200 -141 -245 -57 -55 -155 -82
-186 -51 -34 34 -4 184 84 421 183 493 191 710 31 841 -64 52 -143 78 -255 84
-162 8 -296 -43 -439 -168 l-77 -67 -22 54 c-27 67 -44 87 -109 128 -98 62
-205 73 -292 30z"/>
<path d="M16035 7229 c-4 -11 -7 -42 -7 -68 1 -47 8 -58 508 -742 462 -631
596 -815 947 -1299 62 -85 150 -206 197 -270 47 -63 89 -121 93 -127 5 -8
-270 -332 -780 -915 -433 -497 -826 -947 -873 -1001 -51 -59 -85 -107 -85
-120 0 -21 6 -22 90 -28 50 -3 943 -7 1985 -8 l1895 -1 104 282 c57 156 143
387 191 513 48 127 91 240 95 253 6 21 4 22 -59 22 l-66 0 -40 -81 c-52 -102
-84 -147 -171 -235 -206 -211 -450 -321 -849 -384 -374 -58 -658 -67 -1882
-60 l-836 5 440 500 c242 275 510 581 596 680 86 99 206 236 267 305 100 114
183 208 362 414 34 39 62 77 63 84 0 7 -14 34 -32 60 -36 52 -466 644 -659
907 -69 94 -202 276 -295 405 -94 129 -259 355 -367 503 l-196 267 937 0 c977
0 1191 -6 1457 -41 588 -76 967 -288 1169 -651 l37 -68 64 0 c58 0 64 2 57 18
-4 11 -92 218 -197 460 l-190 442 -1982 0 -1982 0 -6 -21z"/>
<path d="M26580 7002 c-79 -39 -105 -138 -51 -193 33 -32 64 -36 114 -15 70
29 114 102 94 159 -21 62 -89 83 -157 49z"/>
<path d="M28954 7001 c-52 -32 -74 -68 -74 -121 0 -42 4 -52 31 -74 49 -42
120 -28 172 33 48 57 48 107 1 154 -32 33 -84 36 -130 8z"/>
<path d="M1055 6477 c-136 -139 -181 -198 -267 -347 -150 -262 -214 -462 -269
-835 -18 -121 -18 -528 0 -665 75 -583 276 -998 620 -1283 36 -30 53 -37 88
-37 58 0 65 20 24 68 -211 250 -332 464 -402 712 -157 558 -142 1337 37 1834
60 167 215 428 333 560 34 39 60 77 59 85 -2 12 -18 17 -57 19 l-54 3 -112
-114z"/>
<path d="M8817 6583 c-15 -14 -4 -33 61 -109 89 -103 158 -200 210 -298 180
-335 261 -714 262 -1221 0 -232 -11 -379 -41 -559 -42 -248 -82 -378 -180
-583 -70 -149 -138 -253 -234 -363 -75 -85 -87 -104 -79 -124 4 -12 19 -16 54
-16 46 0 50 3 142 90 161 152 224 238 353 483 68 129 90 185 130 327 64 233
95 466 95 733 0 285 -30 508 -102 757 -100 344 -228 562 -466 793 -100 96
-102 97 -150 97 -27 0 -52 -3 -55 -7z"/>
<path d="M10124 6478 c-58 -39 -103 -109 -139 -219 -29 -86 -29 -122 -2 -127
46 -9 61 5 81 75 38 134 78 201 132 217 36 11 57 -16 62 -80 3 -49 -11 -119
-87 -423 -50 -200 -91 -377 -91 -392 0 -33 40 -69 77 -69 39 0 79 27 97 65 10
20 53 176 96 346 78 308 79 311 127 377 84 115 182 172 296 172 50 0 61 -4 82
-26 14 -15 27 -42 31 -60 11 -59 -24 -218 -96 -439 -38 -118 -70 -229 -70
-247 1 -46 31 -109 68 -140 40 -33 116 -50 176 -39 106 20 203 116 257 255 38
98 36 111 -16 111 -39 0 -39 0 -60 -61 -42 -123 -111 -207 -180 -220 -86 -16
-86 41 1 291 78 227 104 329 104 411 0 166 -98 254 -284 254 -102 0 -202 -42
-293 -124 l-51 -46 -6 32 c-8 41 -84 114 -133 127 -73 21 -126 14 -179 -21z"/>
<path d="M23115 6495 c-77 -42 -139 -138 -180 -278 -22 -75 -16 -89 32 -85
l38 3 35 105 c19 58 46 120 59 138 51 72 114 60 127 -24 5 -38 -9 -107 -91
-436 -104 -420 -105 -425 -51 -449 14 -7 40 -9 60 -5 66 12 78 41 167 391 72
286 85 324 119 374 84 124 190 191 304 191 85 0 108 -23 114 -115 6 -84 -15
-171 -95 -412 -71 -215 -77 -258 -43 -328 45 -92 176 -128 283 -76 95 46 207
208 219 316 3 27 0 30 -30 33 -42 4 -56 -7 -72 -60 -33 -112 -111 -212 -174
-224 -49 -9 -64 -1 -71 40 -6 28 7 77 64 243 114 335 129 424 90 528 -38 101
-140 151 -290 143 -93 -5 -190 -49 -265 -120 l-52 -49 -11 33 c-14 40 -44 77
-90 108 -44 30 -152 39 -196 15z"/>
<path d="M26342 6489 c-23 -12 -62 -44 -87 -71 -53 -59 -126 -200 -128 -249
-2 -33 -1 -34 38 -34 l39 0 27 71 c49 135 120 214 191 214 32 0 39 -4 44 -26
12 -49 -6 -114 -116 -409 -102 -271 -111 -302 -105 -344 10 -72 35 -112 89
-146 41 -25 60 -30 110 -30 73 1 123 24 187 87 53 52 129 192 132 245 2 38 2
38 -36 38 l-39 0 -33 -84 c-51 -127 -121 -201 -191 -201 -28 0 -35 5 -40 26
-12 45 2 96 87 319 119 316 139 375 139 423 0 47 -26 105 -62 139 -59 55 -170
70 -246 32z"/>
<path d="M28728 6492 c-94 -43 -219 -223 -222 -319 -1 -37 0 -38 36 -41 36 -3
36 -2 57 53 12 31 21 59 21 64 0 22 82 130 112 149 41 25 90 29 107 8 26 -31
-11 -156 -154 -526 -31 -80 -59 -166 -62 -192 -9 -71 12 -132 59 -173 100 -85
235 -63 342 55 43 48 116 191 119 236 2 27 0 29 -39 32 l-41 3 -28 -76 c-46
-128 -125 -215 -193 -215 -26 0 -34 5 -43 27 -15 40 0 93 102 359 140 363 146
398 89 487 -50 80 -171 111 -262 69z"/>
<path d="M7850 6399 c-58 -5 -161 -13 -230 -19 -140 -10 -145 -13 -156 -86 -9
-64 3 -74 90 -74 39 0 88 -5 110 -11 l39 -11 -6 -47 c-3 -26 -78 -337 -166
-690 -89 -354 -166 -684 -172 -733 -16 -121 1 -271 41 -371 23 -58 42 -84 92
-132 35 -33 90 -73 123 -90 52 -26 72 -30 163 -33 92 -4 113 -1 188 23 213 69
416 259 536 500 70 140 98 260 98 423 0 163 -37 273 -130 386 -148 179 -404
195 -621 39 -56 -40 -58 -36 -30 58 18 59 159 624 196 783 11 52 13 72 4 82
-12 15 -14 15 -169 3z m378 -966 c116 -59 121 -273 16 -658 -69 -249 -113
-344 -204 -435 -138 -138 -286 -160 -377 -57 -43 49 -63 122 -63 228 0 103 12
173 82 459 64 262 74 280 256 424 13 11 49 30 81 43 66 28 148 27 209 -4z"/>
<path d="M27760 6406 c-3 -2 -88 -9 -190 -15 -257 -16 -259 -16 -276 -57 -19
-46 -18 -100 2 -108 9 -3 47 -6 85 -6 75 0 139 -20 139 -44 0 -24 -23 -118
-175 -726 -79 -316 -151 -615 -160 -665 -30 -157 -10 -346 48 -465 31 -63 118
-144 196 -183 63 -31 70 -32 186 -32 99 0 131 4 185 23 94 34 184 90 272 171
229 213 348 466 348 745 0 177 -51 309 -159 416 -91 90 -157 115 -296 114
-118 -1 -177 -20 -280 -90 -75 -51 -78 -48 -45 57 43 140 201 804 198 833 -3
28 -7 31 -38 34 -20 2 -38 1 -40 -2z m245 -957 c165 -45 176 -253 39 -739 -51
-178 -108 -293 -187 -372 -78 -78 -142 -111 -222 -116 -119 -7 -192 66 -215
216 -17 109 -6 178 96 597 42 173 61 207 177 307 120 103 211 134 312 107z"/>
<path d="M24470 6095 c-18 -21 -4 -64 23 -70 12 -3 323 -4 691 -3 661 3 669 3
682 23 12 18 11 24 -2 43 l-15 22 -683 0 c-593 0 -685 -2 -696 -15z"/>
<path d="M5172 6024 l-22 -15 0 -495 0 -494 -493 0 -494 0 -21 -23 c-28 -30
-28 -68 1 -94 21 -20 32 -21 257 -21 129 0 351 -1 493 -1 l257 -1 0 -488 c0
-425 2 -490 16 -510 20 -29 64 -29 92 1 22 23 22 24 22 510 l0 487 488 0 c478
0 489 0 510 20 28 26 29 73 2 100 -19 19 -33 20 -510 20 l-490 0 0 485 c0 430
-2 489 -16 510 -19 29 -58 33 -92 9z"/>
<path d="M2330 5574 c-182 -30 -275 -77 -417 -208 -80 -75 -149 -163 -217
-281 -81 -142 -116 -275 -116 -443 0 -192 42 -316 136 -408 92 -90 193 -134
310 -134 125 0 254 55 374 158 l50 43 15 -35 c21 -49 79 -106 140 -135 71 -35
204 -42 261 -13 88 45 162 152 222 322 39 111 49 170 31 181 -21 13 -95 11
-106 -3 -6 -7 -25 -60 -43 -118 -39 -130 -84 -223 -122 -255 -39 -33 -91 -33
-123 0 -50 49 -40 109 116 740 103 417 110 456 83 487 -55 61 -150 55 -207
-12 l-31 -38 -56 51 c-30 27 -77 61 -105 73 -49 22 -146 36 -195 28z m126
-133 c51 -23 107 -78 136 -134 35 -68 29 -120 -61 -485 -93 -375 -96 -381
-224 -491 -151 -130 -301 -149 -394 -50 -17 19 -36 52 -42 74 -42 155 39 570
162 824 101 210 286 324 423 262z"/>
<path d="M21990 5573 c-146 -14 -278 -83 -415 -214 -240 -231 -360 -530 -325
-816 23 -188 79 -286 216 -377 165 -109 409 -78 578 73 76 68 72 67 94 19 41
-93 139 -149 273 -156 85 -4 87 -4 141 30 71 46 100 82 153 192 67 140 98 245
84 284 -7 19 -16 22 -58 22 -56 0 -51 9 -111 -180 -39 -125 -80 -194 -128
-219 -34 -17 -40 -18 -74 -4 -33 13 -38 20 -49 67 -14 63 -1 127 143 701 95
384 105 449 74 484 -27 30 -83 43 -131 30 -38 -11 -87 -50 -97 -79 -4 -11 -15
-5 -44 26 -52 55 -112 91 -181 109 -56 15 -71 16 -143 8z m109 -123 c77 -22
148 -98 174 -186 18 -61 18 -59 -84 -474 -44 -178 -80 -301 -95 -327 -33 -57
-167 -178 -234 -211 -76 -37 -171 -42 -228 -13 -51 26 -88 79 -102 146 -23
106 23 383 101 620 67 200 148 329 254 399 82 54 141 67 214 46z"/>
<path d="M12596 5325 c-11 -6 -25 -22 -30 -37 -12 -35 12 -73 51 -81 34 -7
2071 2 2094 9 9 2 21 16 27 30 10 20 9 31 -3 54 l-16 30 -817 1 c-449 0 -922
1 -1051 2 -144 1 -243 -2 -255 -8z"/>
<path d="M30527 5135 c-156 -55 -171 -281 -24 -356 51 -27 138 -30 183 -6 36
19 82 69 96 106 14 39 11 125 -6 159 -32 63 -115 113 -186 112 -14 -1 -42 -7
-63 -15z"/>
<path d="M12599 4693 c-17 -4 -39 -43 -39 -68 0 -8 9 -24 20 -35 20 -20 33
-20 1073 -20 578 0 1057 4 1063 8 6 4 16 17 23 30 10 19 9 28 -6 55 l-19 32
-1050 1 c-577 1 -1056 0 -1065 -3z"/>
<path d="M35383 4039 c-53 -12 -128 -78 -143 -125 -7 -20 -10 -59 -7 -87 4
-44 10 -56 42 -84 32 -28 46 -33 87 -33 56 0 75 8 136 57 96 78 95 205 0 263
-36 22 -51 23 -115 9z"/>
<path d="M35052 3314 c-116 -42 -204 -130 -277 -276 -30 -59 -61 -132 -71
-162 -22 -70 -12 -86 56 -86 43 0 49 3 57 28 76 210 127 296 207 350 88 58
166 38 166 -43 0 -63 -58 -239 -220 -660 -98 -256 -100 -261 -100 -344 0 -59
6 -87 24 -126 28 -60 53 -84 126 -122 47 -24 66 -28 132 -27 67 1 86 5 142 34
118 59 224 196 291 374 41 109 34 126 -56 126 -36 0 -36 0 -64 -77 -63 -180
-136 -284 -225 -322 -95 -41 -137 -11 -127 88 8 68 35 148 167 490 170 442
179 480 143 587 -21 63 -95 136 -160 158 -72 25 -160 29 -211 10z"/>
<path d="M19384 2082 c-123 -44 -199 -115 -258 -244 -72 -155 -102 -354 -93
-613 14 -379 104 -577 311 -682 100 -51 286 -40 391 21 186 110 269 344 267
751 -1 307 -47 494 -156 631 -43 55 -64 72 -135 107 -78 39 -89 42 -180 44
-72 2 -109 -2 -147 -15z m236 -92 c71 -37 119 -111 142 -221 18 -88 17 -790
-1 -902 -29 -177 -111 -267 -245 -267 -70 0 -122 25 -165 79 -83 105 -95 195
-88 704 5 446 11 480 106 571 67 65 166 79 251 36z"/>
<path d="M16840 2072 c-45 -22 -80 -75 -80 -121 0 -119 150 -132 223 -20 22
33 24 67 8 106 -22 53 -86 68 -151 35z"/>
<path d="M16602 1559 c-23 -12 -63 -44 -89 -73 -52 -58 -124 -198 -126 -248
-2 -32 -1 -33 38 -33 l40 0 21 62 c29 83 65 142 113 186 33 30 49 37 81 37 34
0 40 -3 46 -26 11 -43 -3 -103 -65 -269 -33 -88 -83 -223 -111 -300 -51 -138
-52 -141 -42 -199 14 -74 30 -98 89 -132 60 -36 147 -38 209 -6 89 45 213 226
218 314 1 32 0 33 -37 33 l-39 0 -33 -84 c-49 -122 -121 -201 -185 -201 -41 0
-54 22 -47 83 5 48 33 130 167 476 74 191 76 257 12 333 -56 67 -176 88 -260
47z"/>
<path d="M17275 1386 c-13 -19 -14 -29 -5 -45 11 -21 13 -21 759 -21 732 0
748 0 766 20 17 18 17 21 1 45 l-16 25 -745 0 -745 0 -15 -24z"/>
<path d="M17274 935 c-15 -22 -15 -27 -1 -48 l15 -23 745 -2 746 -3 17 26 c15
23 15 27 0 50 l-16 25 -745 0 -745 0 -16 -25z"/>
</g>
</svg>
